<svg width="162" height="49" fill="none" xmlns="http://www.w3.org/2000/svg"><path d="M26.964 13.072C26.964 5.882 20.922 0 13.497 0 6.072 0 0 5.852 0 13.072v22.856C0 43.117 6.042 49 13.497 49c7.425 0 13.497-5.852 13.497-13.072.09-2.475-.872-4.833-2.645-6.61l-4.99-4.833 5.02-4.862c1.773-1.834 2.645-4.134 2.585-6.55zm-24.56.263c0-5.649 4.39-10.54 10.221-11.006a11.34 11.34 0 017.546 2.155 9.548 9.548 0 00-2.255-.262c-4.93 0-9.138 3.58-9.59 8.18-.03.234-.03.467-.03.729-.03 2.038.752 4.076 2.165 5.735l-1.864 1.805-5.862 5.678c-.12.116-.21.233-.3.35V13.333h-.03zM22.606 30.92a6.568 6.568 0 011.894 5.735c-.48 3.261-3.547 5.736-7.124 5.736-2.615 0-4.96-1.398-5.982-3.581-1.173-2.504-.902-5.212.691-7.22l2.315 2.24a6.595 6.595 0 011.894 3.698c.09.582.57 1.019 1.172 1.019.721 0 1.293-.612 1.203-1.281-.271-1.893-1.173-3.64-2.586-5.037l-2.405-2.33 3.908-3.784 5.02 4.804zm-5.801-7.308l-5.892 5.707c-2.766 2.765-3.427 6.754-1.714 10.452 1.413 2.998 4.6 4.95 8.177 4.95 1.112 0 2.194-.205 3.216-.525a11.387 11.387 0 01-7.695 2.475C6.944 46.38 2.405 41.4 2.405 35.666v-3c0-1.775.751-3.435 2.014-4.687l1.713-1.66 10.01-9.694a8.789 8.789 0 002.556-5.037c.09-.7-.481-1.281-1.203-1.281-.601 0-1.082.436-1.172 1.019a6.597 6.597 0 01-1.894 3.697l-2.255 2.184c-.961-1.194-1.503-2.65-1.473-4.047 0-.175 0-.35.03-.553.331-3.407 3.518-6.085 7.215-6.085 2.585 0 4.9 1.397 5.922 3.552 1.323 2.795.872 5.823-1.202 7.89l-5.862 5.648zm34.315.936a4.98 4.98 0 001.755-1.673c.243-.378.405-.756.54-1.107a5.837 5.837 0 00.297-1.754c0-1.674-.648-3.023-1.943-3.968-1.269-.945-2.888-1.403-4.832-1.376h-7.53v20.702h7.8c2.024 0 3.752-.46 5.128-1.35 1.512-.998 2.268-2.51 2.268-4.48 0-.972-.297-1.944-.864-2.915-.594-.945-1.484-1.647-2.618-2.079zm-.593 7.423c-.918.567-2.024.863-3.266.863h-5.155v-6.747h4.75c1.053 0 1.998.162 2.78.459 1.485.54 2.214 1.484 2.214 2.888-.027 1.16-.46 1.997-1.323 2.537zm-8.421-8.394V17.18h4.67c1.214 0 2.212.27 3.022.782.783.486 1.16 1.242 1.16 2.295 0 .971-.35 1.754-1.052 2.402-.701.62-1.808.945-3.293.945h-4.507v-.027zm22.268-2.754c-.621 0-1.215.108-1.728.297a5.026 5.026 0 00-2.402 1.836V21.04H57.68v14.305h2.618v-6.991c0-1.35.324-2.51.971-3.428.621-.917 1.62-1.35 2.997-1.35.431 0 .62.028.701.055l.378.08v-2.726l-.189-.08c-.108-.027-.27-.082-.782-.082zm12.253.972c-1.025-.648-2.267-.998-3.697-.998-1.296 0-2.51.35-3.59 1.025a6.943 6.943 0 00-2.51 2.726 7.555 7.555 0 00-.891 3.617c0 1.35.324 2.591.945 3.698a6.566 6.566 0 002.59 2.699c1.134.675 2.376.999 3.699.999a6.994 6.994 0 003.913-1.161c1.16-.783 1.944-1.862 2.349-3.212l.08-.297-2.32-.728-.082.27c-.297.863-.782 1.538-1.457 2.024-.675.459-1.512.701-2.51.701-1.269 0-2.322-.404-3.185-1.268-.81-.756-1.269-1.674-1.404-2.807h11.04l.026-.27c.027-.216.027-.432.027-.702 0-1.43-.243-2.699-.755-3.725a5.558 5.558 0 00-2.268-2.59zm.405 5.02h-8.367a5.125 5.125 0 011.404-2.483c.836-.782 1.754-1.16 2.86-1.16 1.188 0 2.133.35 2.835 1.08.675.674 1.08 1.538 1.268 2.564zM93.82 23.36a7.958 7.958 0 00-1.538-1.484c-.89-.702-2.051-1.053-3.455-1.053-1.997 0-3.644.783-4.885 2.322a7.77 7.77 0 00-1.836 5.074c0 1.97.621 3.67 1.809 5.128 1.268 1.485 2.915 2.24 4.912 2.24 2.079 0 3.779-.81 5.02-2.402V35.4h2.592V21.093h-2.591v2.268h-.028zm-.566 2.403c.405.756.593 1.565.593 2.43.028 1.322-.404 2.51-1.322 3.535-.918.999-1.97 1.511-3.239 1.511h-.054c-.89 0-1.7-.242-2.402-.701-1.404-.972-2.105-2.349-2.105-4.265 0-1.457.431-2.672 1.241-3.644.783-.944 1.863-1.403 3.24-1.403a4.37 4.37 0 012.374.701 4.981 4.981 0 011.674 1.836zm17.274-2.456a8.2 8.2 0 00-1.593-1.485c-.944-.674-2.105-1.025-3.427-1.025-1.998 0-3.644.782-4.886 2.32a7.773 7.773 0 00-1.835 5.075c0 1.97.62 3.67 1.808 5.128 1.269 1.485 2.915 2.24 4.913 2.24 2.078 0 3.778-.809 5.047-2.428v2.24h2.564V13.86h-2.591v9.447zm-.567 2.456c.405.756.594 1.565.594 2.43.027 1.322-.405 2.51-1.323 3.535-.917.999-1.97 1.511-3.239 1.511h-.054c-.89 0-1.7-.242-2.402-.701-1.403-.972-2.105-2.348-2.105-4.265 0-1.457.432-2.672 1.242-3.644.782-.944 1.862-1.403 3.238-1.403.864 0 1.647.243 2.376.702.728.458 1.268 1.08 1.673 1.835zm12.605-11.957c-1.35 0-2.456.432-3.293 1.296-.81.89-1.215 2.159-1.215 3.724v2.24h-2.645v2.349h2.645v11.957h2.592V23.388h3.589v-2.349h-3.589v-2.294c0-.998.216-1.727.674-2.105.378-.324.81-.486 1.323-.486.567 0 .999.054 1.322.162l.405.135V14.13l-.189-.081a5.47 5.47 0 00-1.619-.243zm13.738 9.554a7.928 7.928 0 00-1.538-1.484c-.891-.702-2.051-1.053-3.455-1.053-1.997 0-3.644.783-4.885 2.322a7.77 7.77 0 00-1.836 5.074c0 1.97.621 3.67 1.809 5.128 1.268 1.485 2.915 2.24 4.912 2.24 2.078 0 3.779-.81 5.02-2.402V35.4h2.592V21.093h-2.592v2.268h-.027zm-.566 2.403c.404.756.593 1.565.593 2.43.027 1.322-.404 2.51-1.322 3.535-.918.999-1.97 1.511-3.239 1.511h-.054a4.32 4.32 0 01-2.402-.701c-1.404-.972-2.106-2.349-2.106-4.265 0-1.457.432-2.672 1.242-3.644.783-.944 1.862-1.403 3.239-1.403a4.37 4.37 0 012.375.701c.729.46 1.269 1.08 1.674 1.836zm12.901 1.377l-2.186-.486c-1.187-.297-1.754-.81-1.754-1.593 0-.54.216-.971.674-1.322.432-.378.999-.567 1.674-.567.945 0 1.646.27 2.078.782.378.46.621.945.729 1.431l.081.297 2.402-.702-.054-.27c-.135-.675-.432-1.322-.891-1.97-.917-1.269-2.375-1.916-4.345-1.943-1.053 0-2.105.323-3.104.944-1.242.756-1.862 1.917-1.862 3.428 0 2.051 1.241 3.347 3.643 3.887l2.106.459c.593.135 1.079.35 1.457.674.351.27.54.621.54 1.08 0 .594-.216 1.053-.702 1.377a3.083 3.083 0 01-1.835.566c-.918 0-1.62-.243-2.105-.755a3.278 3.278 0 01-.945-1.809l-.054-.324-2.402.621.027.27a4.91 4.91 0 00.89 2.24c.972 1.404 2.538 2.106 4.643 2.106 1.43 0 2.645-.405 3.644-1.215.998-.783 1.511-1.862 1.511-3.185 0-1.107-.378-1.997-1.134-2.672a6.173 6.173 0 00-2.726-1.35zM162 23.415V21.04h-3.482v-3.941h-2.591v3.94h-2.537v2.376h2.537v8.07c0 2.591 1.457 3.968 4.183 3.968.594 0 1.161-.081 1.674-.243l.216-.054v-2.24l-.351.053a6.888 6.888 0 01-1.188.108c-1.727 0-1.943-.917-1.943-1.619v-8.043H162z" fill="#AA0082"/></svg>